Coordinates
version=1
nRows=5
nColumns=40
inDegrees=yes

Units are S.I. units (second, meters, Newtons, ...)
Angles are in degrees.

endheader
time	pelvis_tilt	pelvis_list	pelvis_rotation	pelvis_tx	pelvis_ty	pelvis_tz	hip_flexion_r	hip_adduction_r	hip_rotation_r	knee_angle_r	knee_angle_r_beta	ankle_angle_r	subtalar_angle_r	mtp_angle_r	hip_flexion_l	hip_adduction_l	hip_rotation_l	knee_angle_l	knee_angle_l_beta	ankle_angle_l	subtalar_angle_l	mtp_angle_l	lumbar_extension	lumbar_bending	lumbar_rotation	arm_flex_r	arm_add_r	arm_rot_r	elbow_flex_r	pro_sup_r	wrist_flex_r	wrist_dev_r	arm_flex_l	arm_add_l	arm_rot_l	elbow_flex_l	pro_sup_l	wrist_flex_l	wrist_dev_l
     32.85000000	     -1.12188225	     -5.13011450	      4.69348711	      1.05538655	      0.92984419	      0.48554485	      9.94358294	      3.65542658	    -13.47575777	     18.93003769	     18.93003769	     11.93103707	     -3.81263380	     -4.11511439	     31.13393720	    -14.70696789	      1.60468101	     65.70120447	     65.70120447	      5.30950888	    -18.52772439	     12.21433627	     -9.99373246	      6.27222796	      1.90290186	     15.85323137	    -20.17505892	     -8.70809639	     69.52003914	     45.62062188	      0.00000000	      0.00000000	      6.82978245	     -9.73164341	     -5.31523136	     30.23661557	     45.59975549	      0.00000000	      0.00000000
     32.86378571	     -1.24306055	     -5.11309580	      5.08864421	      1.05404381	      0.93020163	      0.48617028	      9.40820652	      3.76801969	    -13.74654929	     18.27535472	     18.27535472	     12.01533604	     -3.67995787	     -4.09059182	     32.13784072	    -14.80652143	      1.27076755	     63.26738740	     63.26738740	      5.99645625	    -18.76864442	     12.46844976	    -10.00326876	      6.22509828	      1.69042425	     17.37949600	    -20.10603517	     -8.84034885	     71.44679604	     45.56472181	      0.00000000	      0.00000000	      5.54025696	     -9.36075127	     -5.08969561	     29.40604578	     45.55322966	      0.00000000	      0.00000000
     32.87757143	     -1.36803139	     -5.07336887	      5.47815332	      1.05270164	      0.93049041	      0.48672106	      8.88254089	      3.85233089	    -14.01649596	     17.62849417	     17.62849417	     12.09379282	     -3.53848038	     -4.11796118	     32.95034086	    -14.81787246	      0.88258816	     60.54163342	     60.54163342	      6.68974689	    -18.90610879	     12.88444643	    -10.01784541	      6.14206257	      1.61142629	     18.79240571	    -20.17376030	     -8.95461551	     73.61985674	     45.50138186	      0.00000000	      0.00000000	      4.33823455	     -8.97365326	     -4.81389722	     28.71054130	     45.49885260	      0.00000000	      0.00000000
     32.89135714	     -1.57809431	     -5.04142869	      5.82112716	      1.05127012	      0.93056144	      0.48717507	      8.52625625	      3.91647834	    -14.25622674	     17.10629865	     17.10629865	     12.17838206	     -3.45794759	     -4.15213591	     33.68239927	    -14.74968541	      0.48658669	     57.57878359	     57.57878359	      7.35476233	    -18.99242523	     13.31235896	     -9.95106731	      6.03984641	      1.75494881	     20.18624869	    -20.47173774	     -9.14728306	     75.31883603	     45.45782391	      0.00000000	      0.00000000	      3.24440106	     -8.51181672	     -4.57363640	     28.17588889	     45.44725886	      0.00000000	      0.00000000
     32.90514286	     -1.67864366	     -5.04096981	      6.22136802	      1.04993392	      0.93069149	      0.48735832	      7.96418268	      4.00489994	    -14.70046527	     16.41444158	     16.41444158	     12.09303558	     -3.08998082	     -4.78742767	     34.19974027	    -14.55641845	      0.27193417	     54.47893319	     54.47893319	      8.23854919	    -18.97490705	     14.70505925	    -10.11004894	      6.10734558	      2.28192983	     20.42692713	    -21.16076409	     -9.53062569	     79.85933120	     45.32441049	      0.00000000	      0.00000000	      2.37652973	     -8.14165807	     -3.00149149	     27.60111199	     45.20970956	      0.00000000	      0.00000000
